<mxfile host="app.diagrams.net" modified="2024-07-15T14:43:56.119Z" agent="Mozilla/5.0 (Windows NT 10.0; Win64; x64) AppleWebKit/537.36 (KHTML, like Gecko) Chrome/126.0.0.0 Safari/537.36" etag="pfGUQuOfTkK4329TldyI" version="24.6.4" type="device">
  <diagram name="Page-1" id="6cDiMC7X2h6hoGH8aV63">
    <mxGraphModel dx="2479" dy="1933" grid="1" gridSize="10" guides="1" tooltips="1" connect="1" arrows="1" fold="1" page="1" pageScale="1" pageWidth="850" pageHeight="1100" math="0" shadow="0">
      <root>
        <mxCell id="0" />
        <mxCell id="1" parent="0" />
        <mxCell id="sJcKTsTLh-VLgnzeDOs7-6" value="" style="group" vertex="1" connectable="0" parent="1">
          <mxGeometry x="-100" y="240" width="120" height="60" as="geometry" />
        </mxCell>
        <mxCell id="sJcKTsTLh-VLgnzeDOs7-1" value="" style="rounded=0;whiteSpace=wrap;html=1;" vertex="1" parent="sJcKTsTLh-VLgnzeDOs7-6">
          <mxGeometry width="120" height="60" as="geometry" />
        </mxCell>
        <mxCell id="sJcKTsTLh-VLgnzeDOs7-2" value="generate_questions()&lt;div&gt;+&lt;/div&gt;&lt;div&gt;create_null_json()&lt;br&gt;&lt;/div&gt;" style="text;html=1;align=center;verticalAlign=middle;whiteSpace=wrap;rounded=0;" vertex="1" parent="sJcKTsTLh-VLgnzeDOs7-6">
          <mxGeometry x="30" y="15" width="60" height="30" as="geometry" />
        </mxCell>
        <mxCell id="sJcKTsTLh-VLgnzeDOs7-8" style="edgeStyle=orthogonalEdgeStyle;rounded=0;orthogonalLoop=1;jettySize=auto;html=1;exitX=0.5;exitY=1;exitDx=0;exitDy=0;" edge="1" parent="1" source="sJcKTsTLh-VLgnzeDOs7-7" target="sJcKTsTLh-VLgnzeDOs7-9">
          <mxGeometry relative="1" as="geometry">
            <mxPoint x="160" y="130" as="targetPoint" />
          </mxGeometry>
        </mxCell>
        <mxCell id="sJcKTsTLh-VLgnzeDOs7-7" value="JSON Schema path" style="text;html=1;align=center;verticalAlign=middle;whiteSpace=wrap;rounded=0;" vertex="1" parent="1">
          <mxGeometry x="130" y="40" width="60" height="30" as="geometry" />
        </mxCell>
        <mxCell id="sJcKTsTLh-VLgnzeDOs7-14" value="" style="group" vertex="1" connectable="0" parent="1">
          <mxGeometry x="85" y="200" width="150" height="140" as="geometry" />
        </mxCell>
        <mxCell id="sJcKTsTLh-VLgnzeDOs7-9" value="" style="rhombus;whiteSpace=wrap;html=1;" vertex="1" parent="sJcKTsTLh-VLgnzeDOs7-14">
          <mxGeometry width="150" height="140" as="geometry" />
        </mxCell>
        <mxCell id="sJcKTsTLh-VLgnzeDOs7-20" value="Schema" style="text;html=1;align=center;verticalAlign=middle;whiteSpace=wrap;rounded=0;" vertex="1" parent="sJcKTsTLh-VLgnzeDOs7-14">
          <mxGeometry x="-35" y="10" width="60" height="30" as="geometry" />
        </mxCell>
        <mxCell id="sJcKTsTLh-VLgnzeDOs7-19" value="Generated Q.(s)&lt;div&gt;+&lt;/div&gt;&lt;div&gt;current JSON&lt;/div&gt;" style="text;html=1;align=center;verticalAlign=middle;whiteSpace=wrap;rounded=0;" vertex="1" parent="sJcKTsTLh-VLgnzeDOs7-14">
          <mxGeometry x="-35" y="128" width="60" height="30" as="geometry" />
        </mxCell>
        <mxCell id="sJcKTsTLh-VLgnzeDOs7-26" value="/generate_q" style="text;html=1;align=center;verticalAlign=middle;whiteSpace=wrap;rounded=0;" vertex="1" parent="sJcKTsTLh-VLgnzeDOs7-14">
          <mxGeometry x="45" y="55" width="60" height="30" as="geometry" />
        </mxCell>
        <mxCell id="sJcKTsTLh-VLgnzeDOs7-33" style="edgeStyle=orthogonalEdgeStyle;rounded=0;orthogonalLoop=1;jettySize=auto;html=1;exitX=1;exitY=0.5;exitDx=0;exitDy=0;entryX=0;entryY=0.5;entryDx=0;entryDy=0;" edge="1" parent="1" source="sJcKTsTLh-VLgnzeDOs7-22" target="sJcKTsTLh-VLgnzeDOs7-28">
          <mxGeometry relative="1" as="geometry" />
        </mxCell>
        <mxCell id="sJcKTsTLh-VLgnzeDOs7-22" value="q_dict + current_JSON + expected_dict_ans" style="text;html=1;align=center;verticalAlign=middle;whiteSpace=wrap;rounded=0;" vertex="1" parent="1">
          <mxGeometry x="75" y="440" width="170" height="30" as="geometry" />
        </mxCell>
        <mxCell id="sJcKTsTLh-VLgnzeDOs7-23" style="edgeStyle=orthogonalEdgeStyle;rounded=0;orthogonalLoop=1;jettySize=auto;html=1;exitX=0;exitY=0;exitDx=0;exitDy=0;entryX=1;entryY=0.25;entryDx=0;entryDy=0;" edge="1" parent="1" source="sJcKTsTLh-VLgnzeDOs7-9" target="sJcKTsTLh-VLgnzeDOs7-1">
          <mxGeometry relative="1" as="geometry" />
        </mxCell>
        <mxCell id="sJcKTsTLh-VLgnzeDOs7-24" style="edgeStyle=orthogonalEdgeStyle;rounded=0;orthogonalLoop=1;jettySize=auto;html=1;exitX=1;exitY=0.75;exitDx=0;exitDy=0;entryX=0;entryY=1;entryDx=0;entryDy=0;" edge="1" parent="1" source="sJcKTsTLh-VLgnzeDOs7-1" target="sJcKTsTLh-VLgnzeDOs7-9">
          <mxGeometry relative="1" as="geometry" />
        </mxCell>
        <mxCell id="sJcKTsTLh-VLgnzeDOs7-32" style="edgeStyle=orthogonalEdgeStyle;rounded=0;orthogonalLoop=1;jettySize=auto;html=1;exitX=0.5;exitY=1;exitDx=0;exitDy=0;entryX=0.5;entryY=0;entryDx=0;entryDy=0;" edge="1" parent="1" source="sJcKTsTLh-VLgnzeDOs7-9" target="sJcKTsTLh-VLgnzeDOs7-22">
          <mxGeometry relative="1" as="geometry" />
        </mxCell>
        <mxCell id="sJcKTsTLh-VLgnzeDOs7-34" value="q_dict" style="text;html=1;align=center;verticalAlign=middle;whiteSpace=wrap;rounded=0;" vertex="1" parent="1">
          <mxGeometry x="290" y="430" width="60" height="30" as="geometry" />
        </mxCell>
        <mxCell id="sJcKTsTLh-VLgnzeDOs7-35" value="user_ans" style="text;html=1;align=center;verticalAlign=middle;whiteSpace=wrap;rounded=0;" vertex="1" parent="1">
          <mxGeometry x="355" y="380" width="60" height="30" as="geometry" />
        </mxCell>
        <mxCell id="sJcKTsTLh-VLgnzeDOs7-104" style="edgeStyle=orthogonalEdgeStyle;rounded=0;orthogonalLoop=1;jettySize=auto;html=1;exitX=0.25;exitY=0;exitDx=0;exitDy=0;entryX=0;entryY=0.5;entryDx=0;entryDy=0;" edge="1" parent="1" source="sJcKTsTLh-VLgnzeDOs7-36" target="sJcKTsTLh-VLgnzeDOs7-41">
          <mxGeometry relative="1" as="geometry" />
        </mxCell>
        <mxCell id="sJcKTsTLh-VLgnzeDOs7-36" value="q_dict + current_JSON + expected_dict_ans + user_ans" style="text;html=1;align=center;verticalAlign=middle;whiteSpace=wrap;rounded=0;" vertex="1" parent="1">
          <mxGeometry x="290" y="280" width="170" height="30" as="geometry" />
        </mxCell>
        <mxCell id="sJcKTsTLh-VLgnzeDOs7-53" value="q_dict_unans + current_JSON + expected_dict_ans" style="text;html=1;align=center;verticalAlign=middle;whiteSpace=wrap;rounded=0;" vertex="1" parent="1">
          <mxGeometry x="480" y="212.5" width="170" height="30" as="geometry" />
        </mxCell>
        <mxCell id="sJcKTsTLh-VLgnzeDOs7-52" style="edgeStyle=orthogonalEdgeStyle;rounded=0;orthogonalLoop=1;jettySize=auto;html=1;exitX=1;exitY=0.5;exitDx=0;exitDy=0;entryX=0.5;entryY=0;entryDx=0;entryDy=0;" edge="1" parent="1" source="sJcKTsTLh-VLgnzeDOs7-41" target="sJcKTsTLh-VLgnzeDOs7-53">
          <mxGeometry relative="1" as="geometry">
            <mxPoint x="880" y="225" as="targetPoint" />
          </mxGeometry>
        </mxCell>
        <mxCell id="sJcKTsTLh-VLgnzeDOs7-69" style="edgeStyle=orthogonalEdgeStyle;rounded=0;orthogonalLoop=1;jettySize=auto;html=1;exitX=0.5;exitY=1;exitDx=0;exitDy=0;entryX=1;entryY=0.91;entryDx=0;entryDy=0;entryPerimeter=0;" edge="1" parent="1" source="sJcKTsTLh-VLgnzeDOs7-61" target="sJcKTsTLh-VLgnzeDOs7-29">
          <mxGeometry relative="1" as="geometry">
            <mxPoint x="1125" y="380" as="targetPoint" />
          </mxGeometry>
        </mxCell>
        <mxCell id="sJcKTsTLh-VLgnzeDOs7-71" value="q_dict" style="text;html=1;align=center;verticalAlign=middle;whiteSpace=wrap;rounded=0;" vertex="1" parent="1">
          <mxGeometry x="590" y="500" width="60" height="30" as="geometry" />
        </mxCell>
        <mxCell id="sJcKTsTLh-VLgnzeDOs7-73" value="current_JSON" style="text;html=1;align=center;verticalAlign=middle;whiteSpace=wrap;rounded=0;" vertex="1" parent="1">
          <mxGeometry x="500" y="570" width="60" height="30" as="geometry" />
        </mxCell>
        <mxCell id="sJcKTsTLh-VLgnzeDOs7-72" style="edgeStyle=orthogonalEdgeStyle;rounded=0;orthogonalLoop=1;jettySize=auto;html=1;exitX=0.5;exitY=1;exitDx=0;exitDy=0;entryX=0.5;entryY=0;entryDx=0;entryDy=0;" edge="1" parent="1" source="sJcKTsTLh-VLgnzeDOs7-28" target="sJcKTsTLh-VLgnzeDOs7-75">
          <mxGeometry relative="1" as="geometry">
            <mxPoint x="485" y="680" as="targetPoint" />
          </mxGeometry>
        </mxCell>
        <mxCell id="sJcKTsTLh-VLgnzeDOs7-81" value="" style="ellipse;whiteSpace=wrap;html=1;aspect=fixed;" vertex="1" parent="1">
          <mxGeometry x="740" y="625" width="170" height="170" as="geometry" />
        </mxCell>
        <mxCell id="sJcKTsTLh-VLgnzeDOs7-82" style="edgeStyle=orthogonalEdgeStyle;rounded=0;orthogonalLoop=1;jettySize=auto;html=1;exitX=1;exitY=0.5;exitDx=0;exitDy=0;entryX=0;entryY=0.5;entryDx=0;entryDy=0;" edge="1" parent="1" source="sJcKTsTLh-VLgnzeDOs7-75" target="sJcKTsTLh-VLgnzeDOs7-81">
          <mxGeometry relative="1" as="geometry" />
        </mxCell>
        <mxCell id="sJcKTsTLh-VLgnzeDOs7-83" value="eng_draft_path + hin_draft_path" style="text;html=1;align=center;verticalAlign=middle;whiteSpace=wrap;rounded=0;" vertex="1" parent="1">
          <mxGeometry x="607.5" y="670" width="60" height="30" as="geometry" />
        </mxCell>
        <mxCell id="sJcKTsTLh-VLgnzeDOs7-84" value="Draft Editor" style="text;html=1;align=center;verticalAlign=middle;whiteSpace=wrap;rounded=0;" vertex="1" parent="1">
          <mxGeometry x="792.5" y="695" width="65" height="30" as="geometry" />
        </mxCell>
        <mxCell id="sJcKTsTLh-VLgnzeDOs7-85" value="" style="group" vertex="1" connectable="0" parent="1">
          <mxGeometry x="220" y="680" width="120" height="60" as="geometry" />
        </mxCell>
        <mxCell id="sJcKTsTLh-VLgnzeDOs7-86" value="" style="rounded=0;whiteSpace=wrap;html=1;" vertex="1" parent="sJcKTsTLh-VLgnzeDOs7-85">
          <mxGeometry width="120" height="60" as="geometry" />
        </mxCell>
        <mxCell id="sJcKTsTLh-VLgnzeDOs7-87" value="create.py module" style="text;html=1;align=center;verticalAlign=middle;whiteSpace=wrap;rounded=0;" vertex="1" parent="sJcKTsTLh-VLgnzeDOs7-85">
          <mxGeometry x="25" y="15" width="60" height="30" as="geometry" />
        </mxCell>
        <mxCell id="sJcKTsTLh-VLgnzeDOs7-88" style="edgeStyle=orthogonalEdgeStyle;rounded=0;orthogonalLoop=1;jettySize=auto;html=1;exitX=0;exitY=0;exitDx=0;exitDy=0;entryX=1;entryY=0.25;entryDx=0;entryDy=0;" edge="1" parent="1" source="sJcKTsTLh-VLgnzeDOs7-75" target="sJcKTsTLh-VLgnzeDOs7-86">
          <mxGeometry relative="1" as="geometry" />
        </mxCell>
        <mxCell id="sJcKTsTLh-VLgnzeDOs7-89" style="edgeStyle=orthogonalEdgeStyle;rounded=0;orthogonalLoop=1;jettySize=auto;html=1;exitX=1;exitY=0.75;exitDx=0;exitDy=0;entryX=0;entryY=1;entryDx=0;entryDy=0;" edge="1" parent="1" source="sJcKTsTLh-VLgnzeDOs7-86" target="sJcKTsTLh-VLgnzeDOs7-75">
          <mxGeometry relative="1" as="geometry" />
        </mxCell>
        <mxCell id="sJcKTsTLh-VLgnzeDOs7-75" value="" style="rhombus;whiteSpace=wrap;html=1;" vertex="1" parent="1">
          <mxGeometry x="410" y="640" width="150" height="140" as="geometry" />
        </mxCell>
        <mxCell id="sJcKTsTLh-VLgnzeDOs7-78" value="/generate_draft" style="text;html=1;align=center;verticalAlign=middle;whiteSpace=wrap;rounded=0;" vertex="1" parent="1">
          <mxGeometry x="437.5" y="695" width="95" height="30" as="geometry" />
        </mxCell>
        <mxCell id="sJcKTsTLh-VLgnzeDOs7-90" value="filled JSON" style="text;html=1;align=center;verticalAlign=middle;whiteSpace=wrap;rounded=0;" vertex="1" parent="1">
          <mxGeometry x="377.5" y="640" width="60" height="30" as="geometry" />
        </mxCell>
        <mxCell id="sJcKTsTLh-VLgnzeDOs7-92" value="Generated draft" style="text;html=1;align=center;verticalAlign=middle;whiteSpace=wrap;rounded=0;" vertex="1" parent="1">
          <mxGeometry x="377.5" y="750" width="60" height="30" as="geometry" />
        </mxCell>
        <mxCell id="sJcKTsTLh-VLgnzeDOs7-28" value="" style="ellipse;whiteSpace=wrap;html=1;aspect=fixed;container=0;" vertex="1" parent="1">
          <mxGeometry x="400" y="370" width="170" height="170" as="geometry" />
        </mxCell>
        <mxCell id="sJcKTsTLh-VLgnzeDOs7-105" style="edgeStyle=orthogonalEdgeStyle;rounded=0;orthogonalLoop=1;jettySize=auto;html=1;exitX=0;exitY=0.25;exitDx=0;exitDy=0;entryX=0.25;entryY=1;entryDx=0;entryDy=0;" edge="1" parent="1" source="sJcKTsTLh-VLgnzeDOs7-29" target="sJcKTsTLh-VLgnzeDOs7-36">
          <mxGeometry relative="1" as="geometry" />
        </mxCell>
        <mxCell id="sJcKTsTLh-VLgnzeDOs7-109" style="edgeStyle=orthogonalEdgeStyle;rounded=0;orthogonalLoop=1;jettySize=auto;html=1;exitX=1;exitY=0.25;exitDx=0;exitDy=0;entryX=0;entryY=0.5;entryDx=0;entryDy=0;" edge="1" parent="1" source="sJcKTsTLh-VLgnzeDOs7-29" target="sJcKTsTLh-VLgnzeDOs7-61">
          <mxGeometry relative="1" as="geometry" />
        </mxCell>
        <mxCell id="sJcKTsTLh-VLgnzeDOs7-29" value="&lt;div&gt;&lt;br&gt;&lt;/div&gt;UI:&lt;br&gt;&lt;br&gt;Converts Q.(s) in hindi and shows on QnA form for user to fill out.&lt;br&gt;&lt;br&gt;Send user_ans to /check_ans. If q_dict_unans is empty hit /generate_draft else hit /reframe_q" style="text;html=1;align=center;verticalAlign=middle;whiteSpace=wrap;rounded=0;container=0;" vertex="1" parent="1">
          <mxGeometry x="415" y="370" width="140" height="150" as="geometry" />
        </mxCell>
        <mxCell id="sJcKTsTLh-VLgnzeDOs7-95" value="" style="group" vertex="1" connectable="0" parent="1">
          <mxGeometry x="305" y="-55" width="240" height="265" as="geometry" />
        </mxCell>
        <mxCell id="sJcKTsTLh-VLgnzeDOs7-5" value="" style="group" vertex="1" connectable="0" parent="sJcKTsTLh-VLgnzeDOs7-95">
          <mxGeometry x="75" width="120" height="60" as="geometry" />
        </mxCell>
        <mxCell id="sJcKTsTLh-VLgnzeDOs7-3" value="" style="rounded=0;whiteSpace=wrap;html=1;" vertex="1" parent="sJcKTsTLh-VLgnzeDOs7-5">
          <mxGeometry width="120" height="60" as="geometry" />
        </mxCell>
        <mxCell id="sJcKTsTLh-VLgnzeDOs7-4" value="fill_JSON_schema()&lt;div&gt;+&lt;/div&gt;&lt;div&gt;check_dict()&lt;br&gt;&lt;/div&gt;" style="text;html=1;align=center;verticalAlign=middle;whiteSpace=wrap;rounded=0;" vertex="1" parent="sJcKTsTLh-VLgnzeDOs7-5">
          <mxGeometry x="30" y="15" width="60" height="30" as="geometry" />
        </mxCell>
        <mxCell id="sJcKTsTLh-VLgnzeDOs7-42" value="current_json_str +&lt;div&gt;user_ans_str&lt;/div&gt;" style="text;html=1;align=center;verticalAlign=middle;whiteSpace=wrap;rounded=0;container=0;" vertex="1" parent="sJcKTsTLh-VLgnzeDOs7-95">
          <mxGeometry y="100" width="95" height="30" as="geometry" />
        </mxCell>
        <mxCell id="sJcKTsTLh-VLgnzeDOs7-43" value="current_json&lt;div&gt;(updated)&lt;br&gt;+&lt;/div&gt;&lt;div&gt;q_dict_unans&lt;/div&gt;" style="text;html=1;align=center;verticalAlign=middle;whiteSpace=wrap;rounded=0;container=0;" vertex="1" parent="sJcKTsTLh-VLgnzeDOs7-95">
          <mxGeometry x="180" y="107" width="60" height="30" as="geometry" />
        </mxCell>
        <mxCell id="sJcKTsTLh-VLgnzeDOs7-47" value="" style="group" vertex="1" connectable="0" parent="sJcKTsTLh-VLgnzeDOs7-95">
          <mxGeometry x="60" y="125" width="150" height="140" as="geometry" />
        </mxCell>
        <mxCell id="sJcKTsTLh-VLgnzeDOs7-41" value="" style="rhombus;whiteSpace=wrap;html=1;container=0;" vertex="1" parent="sJcKTsTLh-VLgnzeDOs7-47">
          <mxGeometry width="150" height="140" as="geometry" />
        </mxCell>
        <mxCell id="sJcKTsTLh-VLgnzeDOs7-44" value="/check_ans" style="text;html=1;align=center;verticalAlign=middle;whiteSpace=wrap;rounded=0;container=0;" vertex="1" parent="sJcKTsTLh-VLgnzeDOs7-47">
          <mxGeometry x="45" y="55" width="60" height="30" as="geometry" />
        </mxCell>
        <mxCell id="sJcKTsTLh-VLgnzeDOs7-49" style="edgeStyle=orthogonalEdgeStyle;rounded=0;orthogonalLoop=1;jettySize=auto;html=1;exitX=0;exitY=0;exitDx=0;exitDy=0;entryX=0.25;entryY=1;entryDx=0;entryDy=0;" edge="1" parent="sJcKTsTLh-VLgnzeDOs7-95" source="sJcKTsTLh-VLgnzeDOs7-41" target="sJcKTsTLh-VLgnzeDOs7-3">
          <mxGeometry relative="1" as="geometry" />
        </mxCell>
        <mxCell id="sJcKTsTLh-VLgnzeDOs7-50" style="edgeStyle=orthogonalEdgeStyle;rounded=0;orthogonalLoop=1;jettySize=auto;html=1;exitX=0.75;exitY=1;exitDx=0;exitDy=0;entryX=1;entryY=0;entryDx=0;entryDy=0;" edge="1" parent="sJcKTsTLh-VLgnzeDOs7-95" source="sJcKTsTLh-VLgnzeDOs7-3" target="sJcKTsTLh-VLgnzeDOs7-41">
          <mxGeometry relative="1" as="geometry" />
        </mxCell>
        <mxCell id="sJcKTsTLh-VLgnzeDOs7-96" style="edgeStyle=orthogonalEdgeStyle;rounded=0;orthogonalLoop=1;jettySize=auto;html=1;exitX=0.5;exitY=1;exitDx=0;exitDy=0;" edge="1" parent="1" source="sJcKTsTLh-VLgnzeDOs7-53" target="sJcKTsTLh-VLgnzeDOs7-29">
          <mxGeometry relative="1" as="geometry">
            <mxPoint x="590" y="270" as="sourcePoint" />
            <mxPoint x="540" y="390" as="targetPoint" />
          </mxGeometry>
        </mxCell>
        <mxCell id="sJcKTsTLh-VLgnzeDOs7-99" value="q_dict_unans" style="text;html=1;align=center;verticalAlign=middle;whiteSpace=wrap;rounded=0;" vertex="1" parent="1">
          <mxGeometry x="495" y="330" width="60" height="30" as="geometry" />
        </mxCell>
        <mxCell id="sJcKTsTLh-VLgnzeDOs7-107" value="" style="group" vertex="1" connectable="0" parent="1">
          <mxGeometry x="620" y="212.5" width="290" height="265" as="geometry" />
        </mxCell>
        <mxCell id="sJcKTsTLh-VLgnzeDOs7-68" value="Q_dict_unans_str&amp;nbsp;&lt;div&gt;+&lt;/div&gt;&lt;div&gt;expected_dict_ans_str&lt;/div&gt;" style="text;html=1;align=center;verticalAlign=middle;whiteSpace=wrap;rounded=0;" vertex="1" parent="sJcKTsTLh-VLgnzeDOs7-107">
          <mxGeometry y="100" width="140" height="30" as="geometry" />
        </mxCell>
        <mxCell id="sJcKTsTLh-VLgnzeDOs7-61" value="" style="rhombus;whiteSpace=wrap;html=1;container=0;" vertex="1" parent="sJcKTsTLh-VLgnzeDOs7-107">
          <mxGeometry x="100" y="125" width="150" height="140" as="geometry" />
        </mxCell>
        <mxCell id="sJcKTsTLh-VLgnzeDOs7-106" value="" style="group" vertex="1" connectable="0" parent="sJcKTsTLh-VLgnzeDOs7-107">
          <mxGeometry x="115" width="175" height="210" as="geometry" />
        </mxCell>
        <mxCell id="sJcKTsTLh-VLgnzeDOs7-54" value="" style="group" vertex="1" connectable="0" parent="sJcKTsTLh-VLgnzeDOs7-106">
          <mxGeometry width="120" height="60" as="geometry" />
        </mxCell>
        <mxCell id="sJcKTsTLh-VLgnzeDOs7-55" value="" style="rounded=0;whiteSpace=wrap;html=1;" vertex="1" parent="sJcKTsTLh-VLgnzeDOs7-54">
          <mxGeometry width="120" height="60" as="geometry" />
        </mxCell>
        <mxCell id="sJcKTsTLh-VLgnzeDOs7-56" value="reframe_Q()" style="text;html=1;align=center;verticalAlign=middle;whiteSpace=wrap;rounded=0;" vertex="1" parent="sJcKTsTLh-VLgnzeDOs7-54">
          <mxGeometry x="25" y="15" width="60" height="30" as="geometry" />
        </mxCell>
        <mxCell id="sJcKTsTLh-VLgnzeDOs7-58" value="new_Q_dict_str" style="text;html=1;align=center;verticalAlign=middle;whiteSpace=wrap;rounded=0;container=0;" vertex="1" parent="sJcKTsTLh-VLgnzeDOs7-106">
          <mxGeometry x="115" y="100" width="60" height="30" as="geometry" />
        </mxCell>
        <mxCell id="sJcKTsTLh-VLgnzeDOs7-62" value="/reframe_q" style="text;html=1;align=center;verticalAlign=middle;whiteSpace=wrap;rounded=0;container=0;" vertex="1" parent="sJcKTsTLh-VLgnzeDOs7-106">
          <mxGeometry x="30" y="180" width="60" height="30" as="geometry" />
        </mxCell>
        <mxCell id="sJcKTsTLh-VLgnzeDOs7-63" style="edgeStyle=orthogonalEdgeStyle;rounded=0;orthogonalLoop=1;jettySize=auto;html=1;exitX=0;exitY=0;exitDx=0;exitDy=0;entryX=0.25;entryY=1;entryDx=0;entryDy=0;" edge="1" parent="sJcKTsTLh-VLgnzeDOs7-107" source="sJcKTsTLh-VLgnzeDOs7-61" target="sJcKTsTLh-VLgnzeDOs7-55">
          <mxGeometry relative="1" as="geometry" />
        </mxCell>
        <mxCell id="sJcKTsTLh-VLgnzeDOs7-64" style="edgeStyle=orthogonalEdgeStyle;rounded=0;orthogonalLoop=1;jettySize=auto;html=1;exitX=0.75;exitY=1;exitDx=0;exitDy=0;entryX=1;entryY=0;entryDx=0;entryDy=0;" edge="1" parent="sJcKTsTLh-VLgnzeDOs7-107" source="sJcKTsTLh-VLgnzeDOs7-55" target="sJcKTsTLh-VLgnzeDOs7-61">
          <mxGeometry relative="1" as="geometry" />
        </mxCell>
        <mxCell id="sJcKTsTLh-VLgnzeDOs7-110" value="Q_dict_unans&amp;nbsp;&lt;span data-darkreader-inline-color=&quot;&quot; data-darkreader-inline-bgcolor=&quot;&quot; style=&quot;background-color: initial; color: rgb(0, 0, 0); --darkreader-inline-bgcolor: initial; --darkreader-inline-color: #e8e6e3;&quot;&gt;+&lt;/span&gt;&lt;div&gt;expected_dict_ans&lt;/div&gt;" style="text;html=1;align=center;verticalAlign=middle;whiteSpace=wrap;rounded=0;" vertex="1" parent="1">
          <mxGeometry x="533.5" y="375" width="180" height="30" as="geometry" />
        </mxCell>
      </root>
    </mxGraphModel>
  </diagram>
</mxfile>
